<svg width="225" height="40" viewBox="0 0 225 40" fill="none" xmlns="http://www.w3.org/2000/svg">
<path d="M16.52 4.91999C20.808 4.91999 24.504 6.27999 27.608 8.99999L23.624 13.176C22.44 12.28 21.336 11.64 20.312 11.256C19.32 10.84 18.168 10.632 16.856 10.632C14.392 10.632 12.424 11.608 10.952 13.56C9.48 15.48 8.744 18.408 8.744 22.344C8.744 26.6 9.304 29.624 10.424 31.416C11.544 33.176 13.288 34.056 15.656 34.056C17.32 34.056 18.824 33.688 20.168 32.952V25.416H15.848L15.08 19.848H27.8V36.312C26.072 37.432 24.168 38.296 22.088 38.904C20.008 39.512 17.928 39.816 15.848 39.816C10.792 39.816 6.984 38.344 4.424 35.4C1.864 32.424 0.584 28.072 0.584 22.344C0.584 18.696 1.272 15.56 2.648 12.936C4.056 10.312 5.96 8.32799 8.36 6.98399C10.792 5.60799 13.512 4.91999 16.52 4.91999Z" fill="#141414"/>
<path d="M54.4175 39H47.8415L47.5055 35.784C45.6495 38.472 43.0735 39.816 39.7775 39.816C37.4415 39.816 35.6655 39.112 34.4495 37.704C33.2655 36.296 32.6735 34.328 32.6735 31.8V13.512H40.2575V30.84C40.2575 32.088 40.4495 32.968 40.8335 33.48C41.2495 33.96 41.8735 34.2 42.7055 34.2C44.3055 34.2 45.6815 33.208 46.8335 31.224V13.512H54.4175V39Z" fill="#141414"/>
<path d="M67.9662 13.512V39H60.3822V13.512H67.9662ZM64.1263 0.071991C65.4383 0.071991 66.5102 0.487991 67.3422 1.31999C68.2062 2.11999 68.6383 3.14399 68.6383 4.39199C68.6383 5.63999 68.2062 6.67999 67.3422 7.51199C66.5102 8.31199 65.4383 8.71199 64.1263 8.71199C62.8143 8.71199 61.7423 8.31199 60.9103 7.51199C60.0783 6.67999 59.6623 5.63999 59.6623 4.39199C59.6623 3.14399 60.0783 2.11999 60.9103 1.31999C61.7423 0.487991 62.8143 0.071991 64.1263 0.071991Z" fill="#141414"/>
<path d="M80.6971 39.816C78.4891 39.816 76.7611 39.192 75.5131 37.944C74.2971 36.664 73.6891 34.856 73.6891 32.52V3.38399L81.2731 2.56799V32.232C81.2731 33.288 81.7051 33.816 82.5691 33.816C83.0171 33.816 83.4331 33.736 83.8171 33.576L85.3051 38.952C83.9291 39.528 82.3931 39.816 80.6971 39.816Z" fill="#141414"/>
<path d="M103.107 12.696C105.315 12.696 107.043 13.368 108.291 14.712C109.539 16.056 110.163 17.944 110.163 20.376V39H102.579V21.672C102.579 20.392 102.371 19.512 101.955 19.032C101.539 18.52 100.947 18.264 100.179 18.264C98.6431 18.264 97.1711 19.352 95.7631 21.528V39H88.1791V3.38399L95.7631 2.61599V16.248C96.8191 15.064 97.9391 14.184 99.1231 13.608C100.307 13 101.635 12.696 103.107 12.696Z" fill="#141414"/>
<path d="M138.106 25.752C138.106 26.808 138.058 27.72 137.962 28.488H122.17C122.426 30.632 123.034 32.136 123.994 33C124.954 33.864 126.282 34.296 127.978 34.296C129.002 34.296 129.994 34.12 130.954 33.768C131.914 33.384 132.954 32.808 134.074 32.04L137.194 36.264C134.218 38.632 130.906 39.816 127.258 39.816C123.13 39.816 119.962 38.6 117.754 36.168C115.546 33.736 114.442 30.472 114.442 26.376C114.442 23.784 114.906 21.464 115.834 19.416C116.762 17.336 118.122 15.704 119.914 14.52C121.706 13.304 123.85 12.696 126.346 12.696C130.026 12.696 132.906 13.848 134.986 16.152C137.066 18.456 138.106 21.656 138.106 25.752ZM130.666 23.592C130.602 19.688 129.226 17.736 126.538 17.736C125.226 17.736 124.202 18.216 123.466 19.176C122.762 20.136 122.33 21.72 122.17 23.928H130.666V23.592Z" fill="#141414"/>
<path d="M156.191 12.792C157.119 12.792 157.967 12.904 158.735 13.128L157.535 20.472C156.575 20.248 155.807 20.136 155.231 20.136C153.727 20.136 152.575 20.664 151.775 21.72C151.007 22.744 150.399 24.296 149.951 26.376V39H142.367V13.512H148.991L149.615 18.456C150.191 16.696 151.055 15.32 152.207 14.328C153.391 13.304 154.719 12.792 156.191 12.792Z" fill="#141414"/>
<path d="M189.808 12.696C191.824 12.696 193.44 13.384 194.656 14.76C195.872 16.104 196.48 17.976 196.48 20.376V39H188.896V21.672C188.896 19.4 188.176 18.264 186.736 18.264C185.936 18.264 185.232 18.536 184.624 19.08C184.016 19.624 183.424 20.456 182.848 21.576V39H175.264V21.672C175.264 19.4 174.544 18.264 173.104 18.264C172.336 18.264 171.632 18.552 170.992 19.128C170.384 19.672 169.792 20.488 169.216 21.576V39H161.632V13.512H168.256L168.784 16.488C169.776 15.208 170.864 14.264 172.048 13.656C173.264 13.016 174.64 12.696 176.176 12.696C177.616 12.696 178.848 13.048 179.872 13.752C180.928 14.456 181.696 15.448 182.176 16.728C183.2 15.352 184.32 14.344 185.536 13.704C186.784 13.032 188.208 12.696 189.808 12.696Z" fill="#141414"/>
<path d="M224.403 25.752C224.403 26.808 224.355 27.72 224.259 28.488H208.467C208.723 30.632 209.331 32.136 210.291 33C211.251 33.864 212.579 34.296 214.275 34.296C215.299 34.296 216.291 34.12 217.251 33.768C218.211 33.384 219.251 32.808 220.371 32.04L223.491 36.264C220.515 38.632 217.203 39.816 213.555 39.816C209.427 39.816 206.259 38.6 204.051 36.168C201.843 33.736 200.739 30.472 200.739 26.376C200.739 23.784 201.203 21.464 202.131 19.416C203.059 17.336 204.419 15.704 206.211 14.52C208.003 13.304 210.147 12.696 212.643 12.696C216.323 12.696 219.203 13.848 221.283 16.152C223.363 18.456 224.403 21.656 224.403 25.752ZM216.963 23.592C216.899 19.688 215.523 17.736 212.835 17.736C211.523 17.736 210.499 18.216 209.763 19.176C209.059 20.136 208.627 21.72 208.467 23.928H216.963V23.592Z" fill="#141414"/>
</svg>
